<?xml version="1.0" standalone="no"?>
<!DOCTYPE svg PUBLIC "-//W3C//DTD SVG 20010904//EN"
 "http://www.w3.org/TR/2001/REC-SVG-20010904/DTD/svg10.dtd">
<svg version="1.0" xmlns="http://www.w3.org/2000/svg"
 width="941.000000pt" height="941.000000pt" viewBox="0 0 941.000000 941.000000"
 preserveAspectRatio="xMidYMid meet">
<metadata>
Created by potrace 1.16, written by Peter Selinger 2001-2019
</metadata>
<g transform="translate(0.000000,941.000000) scale(0.100000,-0.100000)"
fill="#000000" stroke="none">
<path d="M8395 9386 c-58 -26 -83 -65 -95 -146 -18 -125 -64 -228 -148 -328
-155 -185 -302 -277 -482 -302 -68 -9 -78 -14 -112 -49 -40 -43 -54 -90 -43
-147 4 -21 21 -52 43 -75 34 -35 44 -40 112 -49 125 -17 227 -64 328 -148 185
-155 277 -302 302 -482 9 -68 14 -78 49 -112 43 -40 90 -54 147 -43 21 4 52
21 75 43 35 34 40 44 49 112 17 125 64 227 148 328 155 185 302 277 482 302
70 9 78 13 112 51 63 70 63 153 0 220 -34 35 -44 40 -112 49 -180 25 -327 117
-482 302 -84 100 -130 203 -148 328 -8 59 -16 81 -38 103 -50 54 -124 71 -187
43z m105 -673 c32 -48 175 -191 223 -223 20 -14 37 -32 37 -40 0 -8 -17 -26
-37 -40 -48 -32 -191 -175 -223 -223 -14 -20 -32 -37 -40 -37 -8 0 -26 17 -40
37 -32 48 -175 191 -223 223 -20 14 -37 32 -37 40 0 8 17 26 37 40 21 14 73
61 118 105 44 45 91 97 105 118 14 20 32 37 40 37 8 0 26 -17 40 -37z"/>
<path d="M4915 8294 c-90 -22 -199 -63 -245 -92 -77 -48 -179 -156 -219 -233
-93 -178 -93 -423 0 -597 48 -89 166 -222 197 -222 26 0 30 -26 9 -62 -38 -63
-121 -197 -149 -241 -15 -23 -33 -53 -40 -67 -7 -14 -16 -27 -19 -30 -4 -3
-20 -27 -37 -55 -68 -111 -128 -208 -154 -248 -15 -23 -33 -53 -40 -67 -7 -14
-16 -27 -19 -30 -9 -7 -62 -93 -94 -152 -27 -51 -33 -123 -14 -161 20 -39 363
-378 398 -393 41 -17 90 -18 127 -1 49 21 142 77 154 92 7 8 17 15 23 15 5 0
25 11 43 25 18 14 37 25 43 25 5 0 16 6 23 13 7 7 35 26 62 42 27 17 65 40 85
53 20 12 52 31 72 41 19 11 41 27 48 35 8 9 18 16 24 16 5 0 25 11 43 25 18
14 37 25 43 25 5 0 16 6 23 13 7 7 35 26 62 42 26 17 56 35 65 40 131 82 143
87 157 67 43 -62 141 -162 158 -162 4 0 22 -11 40 -25 18 -14 37 -25 43 -25 5
0 28 -9 51 -20 103 -50 349 -51 470 -2 186 75 313 209 374 398 30 91 32 268 5
359 -42 139 -116 248 -231 339 l-36 28 0 122 c0 101 -4 137 -27 216 -14 52
-37 112 -50 132 -12 21 -23 42 -23 48 0 17 -79 120 -131 171 -60 59 -175 135
-242 161 -29 11 -70 26 -92 35 -28 10 -87 16 -193 19 l-153 4 -50 62 c-27 35
-59 67 -69 72 -11 5 -20 13 -20 17 0 15 -123 80 -199 105 -74 24 -245 41 -296
28z m183 -338 c90 -24 165 -99 206 -206 26 -67 74 -100 146 -100 32 0 77 7
101 17 63 23 188 21 265 -4 231 -79 358 -314 299 -558 -35 -144 -4 -226 95
-255 90 -26 183 -129 200 -222 38 -194 -99 -362 -295 -362 -149 1 -259 92
-300 252 -16 59 -39 88 -93 116 -58 30 -97 21 -209 -46 -186 -112 -198 -120
-201 -129 -2 -5 -9 -9 -15 -9 -6 0 -27 -11 -46 -24 -45 -29 -139 -88 -225
-141 -36 -22 -101 -62 -145 -90 -43 -27 -104 -66 -135 -85 -31 -19 -82 -51
-113 -71 l-56 -36 -58 58 c-33 33 -59 65 -59 72 0 7 11 29 25 49 14 20 25 39
25 41 0 6 62 102 85 132 8 10 15 23 15 28 0 4 11 23 25 41 14 18 25 38 25 43
0 6 7 16 16 24 8 7 24 29 35 48 10 20 29 52 41 72 13 20 36 58 53 85 16 27 35
55 42 62 7 7 13 18 13 23 0 6 11 25 25 43 14 18 25 38 25 43 0 6 7 16 15 23
11 9 70 103 83 133 2 4 19 31 38 58 45 68 59 119 43 167 -23 72 -50 95 -144
127 -153 51 -235 153 -235 293 0 205 184 342 388 288z"/>
<path d="M1610 8190 c-79 -17 -197 -51 -259 -76 -76 -30 -226 -108 -241 -125
-3 -3 -26 -20 -52 -38 -27 -17 -48 -36 -48 -41 0 -6 -5 -10 -11 -10 -12 0
-509 -497 -554 -555 -173 -221 -262 -471 -272 -765 -12 -314 95 -628 297 -870
77 -93 139 -144 219 -180 48 -22 68 -25 175 -25 115 0 124 2 176 30 90 48 113
66 145 106 17 21 38 48 47 60 34 42 63 150 63 234 0 87 -17 143 -79 270 -34
69 -34 70 -17 100 12 21 26 31 48 33 28 3 37 -5 102 -85 39 -48 79 -98 89
-111 9 -12 22 -28 27 -35 15 -19 103 -129 120 -152 38 -50 159 -201 164 -205
3 -3 11 -12 16 -22 12 -19 119 -153 178 -222 25 -28 66 -60 99 -77 50 -25 68
-29 144 -29 136 0 150 10 443 305 137 137 255 264 264 280 31 61 42 149 28
218 -17 83 -55 140 -153 229 -45 40 -103 93 -129 118 -27 25 -73 68 -103 95
-31 28 -75 68 -98 91 -24 22 -101 94 -173 159 -245 222 -241 217 -215 265 24
44 44 43 147 -8 168 -84 319 -91 454 -20 211 109 294 399 173 605 -46 79 -231
248 -292 267 -12 4 -22 11 -22 15 0 7 -73 43 -215 107 -22 9 -56 21 -75 24
-19 4 -71 17 -114 29 -69 18 -105 21 -270 20 -105 -1 -207 -5 -226 -9z m390
-329 c58 -10 135 -30 171 -44 73 -28 175 -81 200 -103 8 -8 20 -14 26 -14 6 0
13 -4 15 -9 2 -5 28 -29 59 -54 31 -25 64 -62 73 -81 15 -31 15 -39 3 -69 -18
-42 -61 -77 -96 -77 -15 0 -62 19 -106 41 -44 23 -105 47 -135 55 -199 49
-381 -35 -468 -216 -22 -45 -28 -72 -30 -151 -4 -89 -1 -102 25 -163 33 -74
67 -114 202 -236 52 -47 108 -98 126 -115 70 -66 125 -116 245 -225 142 -129
198 -181 248 -229 l35 -33 -199 -199 c-109 -109 -202 -199 -206 -199 -8 0 -7
-2 -91 105 -119 151 -269 340 -337 425 -167 209 -198 248 -201 258 -6 16 -89
82 -128 101 -78 40 -185 50 -282 27 -112 -27 -195 -96 -254 -210 -33 -65 -35
-74 -35 -170 1 -87 4 -108 25 -151 14 -27 25 -53 25 -58 0 -4 11 -25 25 -47
18 -29 25 -54 25 -89 0 -45 -3 -53 -33 -75 -53 -40 -94 -35 -154 18 -56 50
-147 183 -186 271 -15 33 -39 98 -54 145 -24 79 -26 98 -26 255 0 157 2 176
27 255 25 77 69 177 114 255 36 64 147 187 339 375 203 201 279 270 293 270 4
0 12 6 18 13 12 14 130 74 211 107 68 28 235 58 321 59 36 0 112 -8 170 -18z"/>
<path d="M7890 7174 c-43 -36 -55 -66 -70 -164 -11 -74 -55 -190 -80 -210 -4
-3 -18 -23 -33 -44 -36 -54 -130 -149 -197 -201 -84 -63 -162 -101 -237 -115
-114 -20 -143 -30 -179 -63 -61 -57 -60 -172 2 -233 38 -36 48 -40 134 -48 64
-5 142 -35 218 -83 70 -44 72 -45 161 -133 130 -128 190 -232 214 -377 17
-103 38 -142 91 -167 47 -22 117 -20 158 4 57 33 79 72 88 158 18 172 151 360
357 505 70 49 176 89 254 96 83 8 129 40 155 107 15 40 16 53 5 93 -6 25 -20
57 -30 71 -21 29 -91 59 -139 59 -71 2 -228 65 -262 106 -7 8 -17 15 -23 15
-13 0 -217 208 -217 221 0 6 -11 25 -23 42 -40 55 -71 139 -77 214 -5 55 -13
81 -34 111 -34 50 -62 62 -141 62 -54 0 -68 -4 -95 -26z m178 -694 c30 -36 73
-81 96 -100 23 -19 46 -40 51 -46 6 -6 27 -23 48 -39 20 -15 37 -30 37 -34 0
-3 -17 -17 -36 -31 -38 -26 -196 -181 -227 -222 -9 -13 -24 -32 -32 -43 -14
-19 -16 -19 -26 -2 -34 56 -159 187 -234 245 -33 25 -62 47 -64 49 -6 4 36 43
46 43 4 0 16 9 28 20 85 83 163 162 178 181 10 13 27 37 39 53 20 26 22 27 31
10 6 -11 35 -48 65 -84z"/>
<path d="M3405 5938 c-11 -6 -33 -22 -49 -37 -35 -32 -146 -167 -146 -177 0
-4 -6 -15 -14 -23 -33 -38 -136 -244 -136 -273 0 -8 -9 -41 -21 -73 -27 -77
-50 -304 -42 -412 l6 -83 -1451 -2 -1451 -3 -32 -30 c-53 -50 -59 -77 -59
-262 0 -258 32 -593 76 -804 13 -63 24 -122 24 -130 0 -24 64 -255 110 -399 8
-23 49 -134 86 -232 16 -43 97 -218 121 -263 9 -16 20 -38 25 -47 20 -43 26
-56 50 -98 14 -25 39 -67 56 -95 17 -27 43 -71 58 -98 15 -26 31 -47 36 -47 4
0 8 -6 8 -14 0 -8 6 -21 13 -28 7 -7 33 -42 57 -78 56 -81 256 -335 301 -382
152 -158 305 -311 349 -348 30 -25 65 -57 79 -72 14 -16 31 -28 38 -28 7 0 13
-4 13 -8 0 -8 214 -183 235 -191 5 -2 17 -12 27 -21 11 -10 44 -35 76 -56 31
-21 59 -42 62 -45 7 -9 250 -171 275 -184 18 -10 21 -23 26 -145 8 -194 49
-305 166 -452 126 -156 285 -248 502 -288 74 -14 3588 -14 3662 0 217 40 376
132 502 288 117 147 158 258 166 452 5 122 8 135 26 145 25 13 268 175 275
184 3 3 31 24 62 45 32 21 65 46 76 56 10 9 22 19 27 21 21 8 235 183 235 191
0 4 6 8 13 8 7 0 24 12 38 28 14 15 49 47 79 72 47 40 184 176 331 330 61 64
254 306 319 400 24 36 50 71 57 78 7 7 13 20 13 28 0 8 4 14 8 14 5 0 21 21
36 47 15 27 41 71 58 98 33 54 77 130 88 155 6 13 23 47 51 100 21 39 101 214
113 248 37 98 78 209 86 232 46 144 110 375 110 399 0 8 11 67 24 130 44 211
76 546 76 804 0 185 -6 212 -59 262 l-32 30 -2341 3 -2341 2 -521 521 c-287
287 -537 532 -556 545 -38 26 -118 33 -155 12z m1350 -1698 c-21 -24 -146 -83
-245 -116 -82 -28 -92 -29 -265 -28 -177 0 -182 1 -275 33 -135 46 -227 98
-325 183 -72 61 -160 165 -192 225 -6 12 -18 35 -26 50 -30 56 -60 129 -68
163 -4 19 -14 67 -23 105 -43 191 -4 403 118 634 l28 54 644 -644 c579 -579
642 -645 629 -659z m-1661 270 c8 -14 21 -41 30 -60 87 -186 239 -358 428
-485 365 -246 837 -280 1233 -89 28 13 54 24 59 24 4 0 22 10 39 23 17 12 39
27 48 32 95 58 207 155 231 199 51 95 30 152 -107 289 l-98 97 2059 0 2059 0
-8 -207 c-9 -265 -34 -444 -98 -708 -68 -280 -94 -360 -210 -620 -48 -108
-150 -303 -199 -380 -11 -16 -28 -46 -39 -66 -11 -21 -26 -43 -33 -50 -7 -8
-33 -43 -57 -79 -24 -36 -61 -86 -83 -112 -21 -26 -38 -49 -38 -51 0 -3 -12
-19 -27 -36 l-27 -31 -1287 0 -1286 0 -12 123 c-19 186 -55 310 -145 497 -36
74 -132 221 -152 233 -8 4 -14 12 -14 17 0 18 -106 122 -139 136 -45 19 -98
17 -146 -5 -27 -13 -202 -181 -530 -510 l-490 -491 -1445 0 -1446 0 -24 29
c-14 16 -29 35 -35 43 -21 30 -106 144 -125 166 -10 12 -22 31 -25 42 -4 11
-10 20 -14 20 -4 0 -20 21 -35 48 -15 26 -35 61 -46 77 -84 133 -183 334 -271
545 -73 178 -158 495 -197 740 -28 171 -32 213 -40 443 l-7 187 1368 -2 1368
-3 13 -25z m2083 -1747 c79 -126 119 -225 149 -373 31 -152 31 -278 0 -430
-12 -63 -33 -136 -44 -162 -12 -26 -22 -52 -22 -58 0 -15 -41 -87 -107 -186
-72 -110 -218 -247 -333 -313 -54 -31 -181 -91 -192 -91 -7 0 -49 -12 -93 -27
-75 -24 -93 -26 -265 -26 -179 0 -188 1 -290 31 -92 28 -157 54 -210 83 -8 5
-33 18 -55 30 -45 24 -75 48 -75 60 0 7 1497 1509 1504 1509 1 0 16 -21 33
-47z m-1684 -1125 c-132 -134 -248 -257 -257 -275 -18 -35 -21 -99 -7 -135 11
-29 103 -128 119 -128 7 0 12 -4 12 -9 0 -9 106 -91 119 -91 5 0 14 -7 21 -16
13 -14 28 -23 125 -72 114 -57 205 -89 345 -120 98 -22 140 -26 290 -26 195
-1 297 14 455 66 269 90 473 232 668 468 37 44 122 181 151 243 54 115 76 166
76 177 0 6 10 44 22 85 l22 75 1155 0 1155 0 -41 -37 c-129 -120 -174 -160
-252 -223 -23 -19 -53 -44 -66 -55 -12 -11 -33 -28 -46 -37 -34 -24 -182 -136
-195 -146 -17 -15 -265 -182 -269 -182 -3 0 -24 -13 -47 -29 -24 -15 -62 -40
-85 -55 -61 -40 -73 -79 -73 -234 0 -203 -37 -310 -142 -413 -27 -26 -75 -62
-106 -80 -110 -60 -64 -59 -1927 -59 -1129 0 -1719 4 -1775 11 -105 13 -190
53 -265 125 -108 105 -145 211 -145 416 0 155 -12 194 -73 234 -23 15 -61 40
-85 55 -23 16 -44 29 -47 29 -5 0 -256 170 -272 184 -6 6 -28 22 -48 36 -20
14 -55 40 -78 57 -23 18 -51 39 -62 47 -27 20 -231 192 -279 236 -21 19 -59
54 -84 78 l-46 42 1139 0 1139 0 -241 -242z"/>
<path d="M960 4075 l0 -165 160 0 160 0 0 165 0 165 -160 0 -160 0 0 -165z"/>
<path d="M7010 4211 c-155 -41 -248 -94 -358 -203 -111 -111 -168 -213 -206
-369 -34 -138 -34 -240 0 -378 38 -156 95 -258 206 -369 111 -111 213 -168
369 -206 137 -34 240 -34 373 -2 160 40 263 98 374 208 56 56 63 64 99 118 81
121 133 294 133 440 0 171 -74 381 -176 500 -121 141 -250 221 -425 264 -142
35 -248 34 -389 -3z m387 -344 c92 -42 187 -138 232 -232 32 -67 34 -75 34
-185 -1 -109 -2 -118 -34 -185 -45 -94 -140 -189 -234 -234 -67 -32 -75 -34
-185 -34 -110 0 -118 2 -185 34 -94 45 -189 140 -234 234 -32 67 -34 75 -34
185 0 110 2 118 33 185 62 130 203 244 330 266 25 4 82 5 127 3 66 -4 97 -12
150 -37z"/>
<path d="M8300 4075 l0 -165 160 0 160 0 0 165 0 165 -160 0 -160 0 0 -165z"/>
<path d="M2010 4056 c-102 -27 -165 -55 -245 -109 -151 -101 -266 -263 -318
-447 -30 -106 -30 -303 0 -410 39 -140 100 -246 200 -348 157 -159 342 -236
563 -236 221 0 406 77 563 236 100 102 161 208 200 348 30 107 30 304 0 410
-65 231 -223 417 -436 513 -152 69 -363 86 -527 43z m358 -333 c71 -28 100
-47 160 -104 55 -54 68 -72 103 -145 31 -64 33 -74 33 -179 0 -101 -3 -117
-27 -167 -15 -30 -27 -58 -27 -61 0 -28 -129 -148 -201 -187 -64 -34 -64 -35
-199 -35 -135 0 -135 0 -199 35 -58 31 -142 103 -181 155 -8 11 -28 49 -44 85
-27 59 -30 75 -30 176 0 104 2 114 33 178 33 69 45 86 96 140 49 50 95 81 165
109 94 38 223 38 318 0z"/>
<path d="M5640 3915 l0 -165 160 0 160 0 0 165 0 165 -160 0 -160 0 0 -165z"/>
<path d="M3920 3135 l0 -165 165 0 165 0 0 165 0 165 -165 0 -165 0 0 -165z"/>
<path d="M4860 2200 l0 -160 165 0 165 0 0 160 0 160 -165 0 -165 0 0 -160z"/>
<path d="M4543 1896 c-57 -57 -103 -110 -103 -118 0 -7 71 -84 158 -171 l157
-157 113 113 c61 62 112 117 112 122 0 16 -304 315 -320 315 -8 0 -61 -47
-117 -104z"/>
<path d="M4080 1415 l0 -165 165 0 165 0 0 165 0 165 -165 0 -165 0 0 -165z"/>
<path d="M2670 1415 l0 -165 165 0 165 0 0 165 0 165 -165 0 -165 0 0 -165z"/>
<path d="M6110 1265 l0 -165 165 0 165 0 0 165 0 165 -165 0 -165 0 0 -165z"/>
</g>
</svg>
